# xmcd CD database file
#
# Track frame offsets:
#	150
#	20249
#	39042
#	59800
#	81925
#	101350
#	120763
#	142003
#	165493
#	185289
#	205583
#	227632
#	247967
#	268227
#	288031
#	309611
#
# Disc length: 4376 seconds
#
# Revision: 0
# Processed by: cddbd v1.5.1PL2 Copyright (c) Steve Scherf et al.
# Submitted via: CDex 1.51
#
DISCID=d3111610
DTITLE=Various Artist - Salsa Millennium 3
DYEAR=2001
DGENRE=Salsa
TTITLE0=Comerte A Besos
TTITLE1=Pueden Decir
TTITLE2=Como Fue Capaz
TTITLE3=Cuanto Te Amo
TTITLE4=Quisiera Inventar
TTITLE5=Muero
TTITLE6=Sal De Aqui
TTITLE7=El Rey Del Timbal
TTITLE8=Lo Que Quiero Es Salsa
TTITLE9=Si No Vienes No Bailas
TTITLE10=Ven Conmigo
TTITLE11=Llora
TTITLE12=Eso Me Pasa Igual A Mi
TTITLE13=Un Nuevo Amor
TTITLE14=Tan Enamora
TTITLE15=Dime Cual Es Su Nombre
EXTD=YEAR: 2001
EXTT0=
EXTT1=
EXTT2=
EXTT3=
EXTT4=
EXTT5=
EXTT6=
EXTT7=
EXTT8=
EXTT9=
EXTT10=
EXTT11=
EXTT12=
EXTT13=
EXTT14=
EXTT15=
PLAYORDER=
